HIERARCHY
ROOT SpineBase
{
  OFFSET 0.000000 0.000000 0.000000
  CHANNELS 6 Xposition Yposition Zposition Zrotation Xrotation Yrotation
  JOINT SpineMid
  {
    OFFSET 0.000000 29.315181 0.000000
    CHANNELS 3 Zrotation Xrotation Yrotation
    JOINT SpineShoulder
    {
      OFFSET 0.026736 21.817106 -0.661238
      CHANNELS 3 Zrotation Xrotation Yrotation
      JOINT Neck
      {
        OFFSET 0.021264 7.235161 -0.510114
        CHANNELS 3 Zrotation Xrotation Yrotation
        JOINT Head
        {
          OFFSET -4.165829 13.574480 -0.633955
          CHANNELS 3 Zrotation Xrotation Yrotation
          End Site
          {
            OFFSET 0 0 0
          }
        }
      }
      JOINT ShoulderLeft
      {
        OFFSET -15.896935 -4.350441 6.462269
        CHANNELS 3 Zrotation Xrotation Yrotation
        JOINT ElbowLeft
        {
          OFFSET -1.358878 -26.528328 2.155352
          CHANNELS 3 Zrotation Xrotation Yrotation
          JOINT WristLeft
          {
            OFFSET 1.298908 -19.372598 -5.260524
            CHANNELS 3 Zrotation Xrotation Yrotation
            JOINT HandLeft
            {
              OFFSET 1.276546 -4.584661 -0.931514
              CHANNELS 3 Zrotation Xrotation Yrotation
              JOINT HandTipLeft
              {
                OFFSET 0.113146 -6.419780 -0.658866
                CHANNELS 3 Zrotation Xrotation Yrotation
                End Site
                {
                  OFFSET 0 0 0
                }
              }
              JOINT ThumbLeft
              {
                OFFSET -2.524925 -0.707790 -1.518876
                CHANNELS 3 Zrotation Xrotation Yrotation
                End Site
                {
                  OFFSET 0 0 0
                }
              }
            }
          }
        }
      }
      JOINT ShoulderRight
      {
        OFFSET 14.132483 -2.883011 -8.076670
        CHANNELS 3 Zrotation Xrotation Yrotation
        JOINT ElbowRight
        {
          OFFSET 6.131635 -24.444779 -1.899823
          CHANNELS 3 Zrotation Xrotation Yrotation
          JOINT WristRight
          {
            OFFSET -1.423176 -19.073591 -5.825667
            CHANNELS 3 Zrotation Xrotation Yrotation
            JOINT HandRight
            {
              OFFSET -2.509008 -5.775450 -0.005446
              CHANNELS 3 Zrotation Xrotation Yrotation
              JOINT HandTipRight
              {
                OFFSET -1.447817 -4.091717 -0.785260
                CHANNELS 3 Zrotation Xrotation Yrotation
                End Site
                {
                  OFFSET 0 0 0
                }
              }
              JOINT ThumbRight
              {
                OFFSET 3.196625 -1.031858 -0.361360
                CHANNELS 3 Zrotation Xrotation Yrotation
                End Site
                {
                  OFFSET 0 0 0
                }
              }
            }
          }
        }
      }
    }
  }
  JOINT HipLeft
  {
    OFFSET -6.456946 0.362576 -0.595629
    CHANNELS 3 Zrotation Xrotation Yrotation
    JOINT KneeLeft
    {
      OFFSET 6.593595 -29.790022 6.868571
      CHANNELS 3 Zrotation Xrotation Yrotation
      JOINT AnkleLeft
      {
        OFFSET 7.066698 -30.488884 4.483917
        CHANNELS 3 Zrotation Xrotation Yrotation
        JOINT FootLeft
        {
          OFFSET -3.856548 -3.926093 -12.143079
          CHANNELS 3 Zrotation Xrotation Yrotation
          End Site
          {
            OFFSET 0 0 0
          }
        }
      }
    }
  }
  JOINT HipRight
  {
    OFFSET 7.051627 1.297074 -6.031890
    CHANNELS 3 Zrotation Xrotation Yrotation
    JOINT KneeRight
    {
      OFFSET 8.105951 -26.324356 3.377969
      CHANNELS 3 Zrotation Xrotation Yrotation
      JOINT AnkleRight
      {
        OFFSET 2.722352 -35.118438 8.347281
        CHANNELS 3 Zrotation Xrotation Yrotation
        JOINT FootRight
        {
          OFFSET -2.658028 -7.713997 -4.510027
          CHANNELS 3 Zrotation Xrotation Yrotation
          End Site
          {
            OFFSET 0 0 0
          }
        }
      }
    }
  }
}
MOTION
Frames: 5
Frame Time: 0.033333
-29.319424 67.123609 345.245065 4.096971 -3.509869 22.924998 -0.111396 -0.122979 -22.665436 -0.041319 0.257771 0.156842 25.287443 13.854099 -0.072924 0.000000 0.000000 0.000000 -4.903226 0.657682 -0.071432 8.949043 -9.982530 -2.704701 -24.442992 -10.779445 1.488006 43.206969 30.896775 -14.516859 0.000000 0.000000 0.000000 0.000000 0.000000 0.000000 -130.089142 37.103015 119.949751 -14.336151 -36.492630 -48.603753 8.856203 -2.664449 -30.096954 10.464454 8.389248 15.494861 0.000000 0.000000 0.000000 0.000000 0.000000 0.000000 -6.002975 4.745245 -23.475767 0.442143 2.415369 0.943841 7.553541 -15.029786 0.241777 0.000000 0.000000 0.000000 -1.049010 7.541351 -21.882196 -1.279569 -3.800388 -1.331907 6.125196 0.196666 -2.580064 0.000000 0.000000 0.000000
-29.357703 67.135586 345.224060 4.038304 -3.488802 23.167552 -0.146821 -0.060043 -22.913970 -0.110904 0.310189 0.147905 25.489243 14.268851 0.008936 0.000000 0.000000 0.000000 -4.720034 0.537956 -0.069451 8.996120 -9.974920 -2.714692 -26.302321 -7.834198 3.343776 45.123744 30.187505 -14.670714 0.000000 0.000000 0.000000 0.000000 0.000000 0.000000 -130.194986 36.820879 120.180758 -13.606148 -36.205210 -48.052835 10.508063 -4.066584 -29.650512 10.624872 6.999652 15.033483 0.000000 0.000000 0.000000 0.000000 0.000000 0.000000 -5.875778 4.829089 -23.698212 0.533982 2.316547 0.928425 8.046730 -16.412758 -0.401969 0.000000 0.000000 0.000000 -0.967386 7.361801 -22.162410 -1.361966 -3.628861 -1.302938 6.092277 -0.453069 -2.300358 0.000000 0.000000 0.000000
-29.353549 67.138912 345.185644 4.020830 -3.414127 23.376548 -0.180766 0.026738 -23.129129 -0.148765 0.379231 0.140622 25.198317 14.586842 0.176857 0.000000 0.000000 0.000000 -4.601779 0.326538 -0.074008 9.032579 -9.966249 -2.722370 -28.819439 -4.891444 5.494276 48.908828 29.147545 -15.410359 0.000000 0.000000 0.000000 0.000000 0.000000 0.000000 -130.260436 36.771407 120.401041 -13.551064 -36.982650 -48.268971 11.703697 -5.108086 -28.856449 9.502034 6.975395 14.367030 0.000000 0.000000 0.000000 0.000000 0.000000 0.000000 -5.862202 4.873938 -23.899672 0.621731 2.159315 0.902410 9.727233 -19.898401 -3.544797 0.000000 0.000000 0.000000 -1.041988 7.208191 -22.405318 -1.389597 -3.501417 -1.281236 6.189824 -1.074064 -2.057053 0.000000 0.000000 0.000000
-29.332910 67.128358 345.143493 4.022228 -3.315407 23.467953 -0.197484 0.116483 -23.226833 -0.143698 0.448572 0.136093 24.503879 14.785582 0.389271 0.000000 0.000000 0.000000 -4.559574 0.081967 -0.083077 9.050254 -9.958015 -2.726016 -30.395657 -2.324977 7.251990 48.691766 23.036983 -13.462813 0.000000 0.000000 0.000000 0.000000 0.000000 0.000000 -129.898392 37.024567 119.925538 -13.620521 -38.207311 -48.447878 13.089448 -5.391754 -27.679456 8.571648 6.512611 13.585354 0.000000 0.000000 0.000000 0.000000 0.000000 0.000000 -5.887551 4.845467 -23.991274 0.639623 2.055342 0.879920 12.360863 -26.055333 -9.877868 0.000000 0.000000 0.000000 -1.129897 7.116422 -22.507740 -1.398286 -3.510548 -1.285743 5.709426 -1.467559 -1.550503 0.000000 0.000000 0.000000
-29.268297 67.118939 345.080744 4.073915 -3.173988 23.697894 -0.220801 0.214803 -23.462076 -0.116415 0.517864 0.133809 23.540326 14.835668 0.635258 0.000000 0.000000 0.000000 -4.580111 -0.208969 -0.097054 9.067620 -9.948151 -2.729584 -32.310818 -0.411526 8.883738 50.247309 21.843801 -13.196360 0.000000 0.000000 0.000000 0.000000 0.000000 0.000000 -129.103488 37.704335 118.918191 -14.541165 -39.721062 -49.263700 14.165798 -3.463881 -26.562232 7.815210 5.278017 13.073364 0.000000 0.000000 0.000000 0.000000 0.000000 0.000000 -6.057172 4.797323 -24.242752 0.687444 1.955002 0.869052 14.973478 -35.133799 -19.814221 0.000000 0.000000 0.000000 -1.360646 6.926567 -22.779173 -1.349244 -3.439073 -1.247128 5.753279 -1.471066 -1.497853 0.000000 0.000000 0.000000
